<?xml version="1.0" encoding="iso-8859-1"?>
<!-- Uploaded to: SVG Repo, www.svgrepo.com, Generator: SVG Repo Mixer Tools -->
<svg height="800px" width="800px" version="1.1" id="Layer_1" xmlns="http://www.w3.org/2000/svg" xmlns:xlink="http://www.w3.org/1999/xlink" 
	 viewBox="0 0 512.001 512.001" xml:space="preserve">
<path style="fill:#CAD1D8;" d="M24,16h464c13.254,0,24,10.745,24,24v432c0,13.254-10.745,24-24,24H24C10.745,496,0,485.255,0,472V40
	C0,26.745,10.745,16,24,16z"/>
<path style="fill:#FFFFFF;" d="M24,80h464c4.418,0,8,3.582,8,8v384c0,4.418-3.582,8-8,8H24c-4.418,0-8-3.582-8-8V88
	C16,83.582,19.582,80,24,80z"/>
<g>
	<circle style="fill:#9BA7AF;" cx="24.002" cy="47.995" r="7.998"/>
	<circle style="fill:#9BA7AF;" cx="56.002" cy="47.995" r="7.998"/>
	<circle style="fill:#9BA7AF;" cx="88.002" cy="47.995" r="7.998"/>
</g>
<path style="fill:#E2E5E7;" d="M120,40h368c4.418,0,8,3.582,8,8l0,0c0,4.418-3.582,8-8,8H120c-4.418,0-8-3.582-8-8l0,0
	C112,43.582,115.582,40,120,40z"/>
<g>
	<path style="fill:#CAD1D8;" d="M56,224h96c4.418,0,8,3.582,8,8.001l0,0c0,4.418-3.582,8-8,8H56c-4.418,0-8-3.582-8-8l0,0
		C48,227.582,51.582,224,56,224z"/>
	<path style="fill:#CAD1D8;" d="M56,256h72c4.418,0,8.001,3.582,8.001,8l0,0c0,4.418-3.582,8-8.001,8H56c-4.418,0-8-3.582-8-8l0,0
		C48,259.582,51.582,256,56,256z"/>
</g>
<path style="fill:#BD6428;" d="M56,100h176c2.209,0,4,1.791,4,4v96c0,2.209-1.791,4-4,4H56c-2.209,0-4-1.791-4-4v-96
	C52,101.791,53.791,100,56,100z"/>
<path style="fill:#A35723;" d="M232.001,104v96H56v-96H232.001 M232.001,96H56c-4.418,0-8,3.582-8,8v96c0,4.418,3.582,8,8,8h176
	c4.418,0,8-3.582,8-8v-96C240,99.582,236.418,96,232.001,96L232.001,96z"/>
<path style="fill:#E2E5E7;" d="M192,240h32c8.837,0,16,7.163,16,16l0,0c0,8.837-7.163,16-16,16h-32c-8.837,0-16-7.163-16-16l0,0
	C176,247.163,183.163,240,192,240z"/>
<path style="fill:#3CB54A;" d="M192,232.001h32c8.837,0,16,7.163,16,16l0,0c0,8.837-7.163,16-16,16h-32c-8.837,0-16-7.163-16-16l0,0
	C176,239.164,183.163,232.001,192,232.001z"/>
<circle style="fill:#0E9347;" cx="207.995" cy="248.002" r="7.998"/>
<g>
	<circle style="fill:#A35623;" cx="128" cy="192" r="7.998"/>
	<circle style="fill:#A35623;" cx="160" cy="192" r="7.998"/>
	<path style="fill:#A35623;" d="M184.001,120h-16c-4.418,0-8.001,3.582-8.001,8v8.001h-40.001c-4.418,0-8,3.582-8,8.001v24.001
		c0,4.418,3.582,8,8,8h48c4.418,0,8.001-3.582,8.001-8v-32h8.001c4.418,0,8-3.582,8-8.001C192,123.582,188.418,120,184.001,120z"/>
</g>
<g>
	<circle style="fill:#FFFFFF;" cx="128" cy="184.002" r="7.998"/>
	<circle style="fill:#FFFFFF;" cx="160" cy="184.002" r="7.998"/>
	<path style="fill:#FFFFFF;" d="M184.001,112h-16c-4.418,0-8.001,3.582-8.001,8v8h-40.001c-4.418,0-8,3.582-8,8.001v24
		c0,4.418,3.582,8.001,8,8.001h48c4.418,0,8.001-3.582,8.001-8.001V128h8.001c4.418,0,8-3.582,8-8.001
		C192.001,115.581,188.418,112,184.001,112z"/>
</g>
<g>
	<path style="fill:#CAD1D8;" d="M280,224h96c4.418,0,8,3.582,8,8.001l0,0c0,4.418-3.582,8-8,8h-96c-4.418,0-8-3.582-8-8l0,0
		C272,227.582,275.582,224,280,224z"/>
	<path style="fill:#CAD1D8;" d="M280,256h72c4.418,0,8,3.582,8,8l0,0c0,4.418-3.582,8-8,8h-72c-4.418,0-8-3.582-8-8l0,0
		C272,259.582,275.582,256,280,256z"/>
</g>
<path style="fill:#BD6428;" d="M280,100h176c2.209,0,4,1.791,4,4v96c0,2.209-1.791,4-4,4H280c-2.209,0-4-1.791-4-4v-96
	C276,101.791,277.791,100,280,100z"/>
<path style="fill:#A35723;" d="M456,104v96H280v-96H456 M456,96H280c-4.418,0-8,3.582-8,8v96c0,4.418,3.582,8,8,8h176
	c4.418,0,8-3.582,8-8v-96C464,99.582,460.418,96,456,96L456,96z"/>
<path style="fill:#E2E5E7;" d="M416,240h32c8.837,0,16,7.163,16,16l0,0c0,8.837-7.163,16-16,16h-32c-8.837,0-16-7.163-16-16l0,0
	C400,247.163,407.163,240,416,240z"/>
<path style="fill:#3CB54A;" d="M416,232.001h32c8.837,0,16,7.163,16,16l0,0c0,8.837-7.163,16-16,16h-32c-8.837,0-16-7.163-16-16l0,0
	C400,239.164,407.163,232.001,416,232.001z"/>
<circle style="fill:#0E9347;" cx="431.995" cy="248.002" r="7.998"/>
<g>
	<circle style="fill:#A35623;" cx="352" cy="192" r="7.998"/>
	<circle style="fill:#A35623;" cx="384" cy="192" r="7.998"/>
	<path style="fill:#A35623;" d="M408,120h-16c-4.418,0-8,3.582-8,8v8.001h-40c-4.418,0-8,3.582-8,8.001v24.001c0,4.418,3.582,8,8,8
		h48c4.418,0,8-3.582,8-8v-32h8c4.418,0,8-3.582,8-8.001C416,123.582,412.418,120,408,120z"/>
</g>
<g>
	<circle style="fill:#FFFFFF;" cx="352" cy="184.002" r="7.998"/>
	<circle style="fill:#FFFFFF;" cx="384" cy="184.002" r="7.998"/>
	<path style="fill:#FFFFFF;" d="M408,112h-16c-4.418,0-8,3.582-8,8v8h-40c-4.418,0-8,3.582-8,8.001v24c0,4.418,3.582,8.001,8,8.001
		h48c4.418,0,8-3.582,8-8.001V128h8c4.418,0,8-3.582,8-8.001C416.001,115.581,412.418,112,408,112z"/>
</g>
<g>
	<path style="fill:#CAD1D8;" d="M56,416h96c4.418,0,8,3.582,8,8l0,0c0,4.418-3.582,8-8,8H56c-4.418,0-8-3.582-8-8l0,0
		C48,419.582,51.582,416,56,416z"/>
	<path style="fill:#CAD1D8;" d="M56,448h72c4.418,0,8.001,3.582,8.001,8l0,0c0,4.418-3.582,8-8.001,8H56c-4.418,0-8-3.582-8-8l0,0
		C48,451.582,51.582,448,56,448z"/>
</g>
<path style="fill:#BD6428;" d="M56,292h176c2.209,0,4,1.791,4,4v96c0,2.209-1.791,4-4,4H56c-2.209,0-4-1.791-4-4v-96
	C52,293.791,53.791,292,56,292z"/>
<path style="fill:#A35723;" d="M232.001,296v96H56v-96H232.001 M232.001,288H56c-4.418,0-8,3.582-8,8v96c0,4.418,3.582,8,8,8h176
	c4.418,0,8-3.582,8-8v-96C240,291.582,236.418,288,232.001,288L232.001,288z"/>
<path style="fill:#E2E5E7;" d="M192,432h32c8.837,0,16,7.163,16,16l0,0c0,8.837-7.163,16-16,16h-32c-8.837,0-16-7.163-16-16l0,0
	C176,439.163,183.163,432,192,432z"/>
<path style="fill:#3CB54A;" d="M192,424h32c8.837,0,16,7.163,16,16l0,0c0,8.837-7.163,16-16,16h-32c-8.837,0-16-7.163-16-16l0,0
	C176,431.164,183.163,424,192,424z"/>
<circle style="fill:#0E9347;" cx="207.995" cy="440.002" r="7.998"/>
<g>
	<circle style="fill:#A35623;" cx="128" cy="384" r="7.998"/>
	<circle style="fill:#A35623;" cx="160" cy="384" r="7.998"/>
	<path style="fill:#A35623;" d="M184.001,312h-16c-4.418,0-8.001,3.582-8.001,8v8h-40.001c-4.418,0-8,3.582-8,8v24
		c0,4.418,3.582,8,8,8h48c4.418,0,8.001-3.582,8.001-8v-32h8.001c4.418,0,8-3.582,8-8C192.001,315.583,188.418,312,184.001,312z"/>
</g>
<g>
	<circle style="fill:#FFFFFF;" cx="128" cy="376.002" r="7.998"/>
	<circle style="fill:#FFFFFF;" cx="160" cy="376.002" r="7.998"/>
	<path style="fill:#FFFFFF;" d="M184.001,304h-16c-4.418,0-8.001,3.582-8.001,8v8h-40.001c-4.418,0-8,3.582-8,8v24
		c0,4.418,3.582,8,8,8h48c4.418,0,8.001-3.582,8.001-8V320h8.001c4.418,0,8-3.582,8-8S188.418,304,184.001,304z"/>
</g>
<g>
	<path style="fill:#CAD1D8;" d="M280,416h96c4.418,0,8,3.582,8,8l0,0c0,4.418-3.582,8-8,8h-96c-4.418,0-8-3.582-8-8l0,0
		C272,419.582,275.582,416,280,416z"/>
	<path style="fill:#CAD1D8;" d="M280,448h72c4.418,0,8,3.582,8,8l0,0c0,4.418-3.582,8-8,8h-72c-4.418,0-8-3.582-8-8l0,0
		C272,451.582,275.582,448,280,448z"/>
</g>
<path style="fill:#BD6428;" d="M280,292h176c2.209,0,4,1.791,4,4v96c0,2.209-1.791,4-4,4H280c-2.209,0-4-1.791-4-4v-96
	C276,293.791,277.791,292,280,292z"/>
<path style="fill:#A35723;" d="M456,296v96H280v-96H456 M456,288H280c-4.418,0-8,3.582-8,8v96c0,4.418,3.582,8,8,8h176
	c4.418,0,8-3.582,8-8v-96C464,291.582,460.418,288,456,288L456,288z"/>
<path style="fill:#E2E5E7;" d="M416,432h32c8.837,0,16,7.163,16,16l0,0c0,8.837-7.163,16-16,16h-32c-8.837,0-16-7.163-16-16l0,0
	C400,439.163,407.163,432,416,432z"/>
<path style="fill:#3CB54A;" d="M416,424h32c8.837,0,16,7.163,16,16l0,0c0,8.837-7.163,16-16,16h-32c-8.837,0-16-7.163-16-16l0,0
	C400,431.164,407.163,424,416,424z"/>
<circle style="fill:#0E9347;" cx="431.995" cy="440.002" r="7.998"/>
<g>
	<circle style="fill:#A35623;" cx="352" cy="384" r="7.998"/>
	<circle style="fill:#A35623;" cx="384" cy="384" r="7.998"/>
	<path style="fill:#A35623;" d="M408,312h-16c-4.418,0-8,3.582-8,8v8h-40c-4.418,0-8,3.582-8,8v24c0,4.418,3.582,8,8,8h48
		c4.418,0,8-3.582,8-8v-32h8c4.418,0,8-3.582,8-8C416.001,315.583,412.418,312,408,312z"/>
</g>
<g>
	<circle style="fill:#FFFFFF;" cx="352" cy="376.002" r="7.998"/>
	<circle style="fill:#FFFFFF;" cx="384" cy="376.002" r="7.998"/>
	<path style="fill:#FFFFFF;" d="M408,304h-16c-4.418,0-8,3.582-8,8v8h-40c-4.418,0-8,3.582-8,8v24c0,4.418,3.582,8,8,8h48
		c4.418,0,8-3.582,8-8V320h8c4.418,0,8-3.582,8-8S412.418,304,408,304z"/>
</g>
<g>
	<path style="fill:#DDDFE1;" d="M408,120c-4.418,0-8,3.582-8,8h8c4.418,0,8-3.582,8-8H408z"/>
	<path style="fill:#DDDFE1;" d="M392,144v16h-56c0,4.418,3.582,8.001,8,8.001h48c4.418,0,8-3.582,8-8.001v-24.001
		C395.582,136.001,392,139.582,392,144z"/>
	<path style="fill:#DDDFE1;" d="M184.001,120c-4.418,0-8.001,3.582-8.001,8h8.001c4.418,0,8-3.582,8-8H184.001z"/>
	<path style="fill:#DDDFE1;" d="M168.001,144v16H112c0,4.418,3.582,8.001,8,8.001h48c4.418,0,8-3.582,8-8.001v-24.001
		C171.582,136.001,168.001,139.582,168.001,144z"/>
	<path style="fill:#DDDFE1;" d="M408,312c-4.418,0-8,3.582-8,8h8c4.418,0,8-3.582,8-8H408z"/>
	<path style="fill:#DDDFE1;" d="M392,336v16h-56c0,4.418,3.582,8,8,8h48c4.418,0,8-3.582,8-8v-24C395.582,328,392,331.582,392,336z"
		/>
	<path style="fill:#DDDFE1;" d="M184.001,312c-4.418,0-8.001,3.582-8.001,8h8.001c4.418,0,8-3.582,8-8H184.001z"/>
	<path style="fill:#DDDFE1;" d="M168.001,336v16H112c0,4.418,3.582,8,8,8h48c4.418,0,8-3.582,8-8v-24
		C171.582,328,168.001,331.582,168.001,336z"/>
</g>
</svg>